<svg xmlns="http://www.w3.org/2000/svg" xmlns:xlink="http://www.w3.org/1999/xlink" width="500" zoomAndPan="magnify" viewBox="0 0 375 374.999991" height="500" preserveAspectRatio="xMidYMid meet" version="1.0"><defs><g/></defs><rect x="-37.5" width="450" fill="#ffffff" y="-37.499999" height="449.999989" fill-opacity="1"/><rect x="-37.5" width="450" fill="#000000" y="-37.499999" height="449.999989" fill-opacity="1"/><path fill="#f68712" d="M 177.882812 158.117188 C 175.957031 158.128906 174.402344 159.695312 174.414062 161.625 C 174.421875 163.550781 175.992188 165.105469 177.921875 165.09375 C 179.847656 165.085938 181.402344 163.515625 181.390625 161.589844 C 181.382812 159.660156 179.8125 158.105469 177.882812 158.117188 " fill-opacity="1" fill-rule="nonzero"/><path fill="#f68712" d="M 195.738281 158.847656 C 195.71875 158.707031 195.699219 158.558594 195.679688 158.410156 C 195.660156 158.261719 195.640625 158.105469 195.613281 157.949219 C 195.585938 157.792969 195.554688 157.632812 195.523438 157.46875 C 195.402344 156.816406 195.207031 156.121094 194.976562 155.390625 C 194.910156 155.210938 194.84375 155.027344 194.777344 154.84375 C 194.742188 154.75 194.710938 154.660156 194.675781 154.566406 C 194.636719 154.472656 194.597656 154.382812 194.558594 154.289062 C 194.480469 154.105469 194.40625 153.917969 194.320312 153.730469 C 194.230469 153.542969 194.140625 153.359375 194.046875 153.171875 C 193.960938 152.980469 193.855469 152.796875 193.753906 152.613281 C 193.648438 152.425781 193.550781 152.234375 193.433594 152.054688 C 193.320312 151.871094 193.207031 151.6875 193.09375 151.5 C 192.972656 151.320312 192.84375 151.140625 192.71875 150.960938 C 192.597656 150.777344 192.460938 150.605469 192.328125 150.429688 C 192.191406 150.253906 192.0625 150.074219 191.914062 149.90625 C 191.769531 149.738281 191.625 149.566406 191.480469 149.398438 C 191.324219 149.234375 191.171875 149.070312 191.019531 148.910156 L 190.90625 148.789062 L 190.542969 148.4375 L 190.304688 148.207031 C 190.21875 148.132812 190.136719 148.058594 190.050781 147.984375 C 189.96875 147.914062 189.882812 147.839844 189.800781 147.765625 C 189.71875 147.691406 189.636719 147.617188 189.546875 147.550781 C 189.375 147.414062 189.199219 147.277344 189.027344 147.140625 C 188.941406 147.070312 188.851562 147.011719 188.761719 146.945312 C 188.671875 146.882812 188.582031 146.820312 188.496094 146.757812 C 188.40625 146.695312 188.320312 146.628906 188.230469 146.570312 C 188.136719 146.511719 188.046875 146.453125 187.957031 146.394531 C 187.863281 146.339844 187.773438 146.28125 187.683594 146.222656 C 187.59375 146.164062 187.503906 146.105469 187.410156 146.054688 C 187.226562 145.949219 187.042969 145.84375 186.863281 145.742188 C 186.773438 145.691406 186.679688 145.644531 186.585938 145.597656 C 186.492188 145.550781 186.402344 145.503906 186.308594 145.457031 C 186.21875 145.410156 186.125 145.367188 186.035156 145.320312 C 185.945312 145.273438 185.851562 145.238281 185.757812 145.195312 C 185.574219 145.113281 185.394531 145.035156 185.214844 144.957031 C 185.03125 144.882812 184.851562 144.816406 184.671875 144.746094 C 184.582031 144.714844 184.492188 144.679688 184.40625 144.644531 C 184.316406 144.613281 184.226562 144.585938 184.136719 144.558594 C 183.960938 144.503906 183.789062 144.445312 183.617188 144.390625 C 183.53125 144.359375 183.445312 144.339844 183.359375 144.316406 C 183.273438 144.296875 183.191406 144.273438 183.105469 144.25 C 183.023438 144.230469 182.941406 144.207031 182.859375 144.1875 C 182.777344 144.164062 182.695312 144.140625 182.613281 144.125 C 182.449219 144.089844 182.292969 144.058594 182.136719 144.027344 C 181.980469 143.996094 181.828125 143.957031 181.679688 143.9375 C 181.527344 143.914062 181.382812 143.894531 181.242188 143.871094 C 181.171875 143.863281 181.101562 143.851562 181.03125 143.839844 C 181 143.835938 180.964844 143.832031 180.929688 143.824219 C 180.894531 143.824219 180.863281 143.820312 180.828125 143.816406 C 180.5625 143.789062 180.3125 143.761719 180.078125 143.742188 C 179.847656 143.730469 179.632812 143.726562 179.441406 143.714844 C 179.34375 143.714844 179.253906 143.710938 179.167969 143.707031 C 179.082031 143.703125 179 143.707031 178.925781 143.710938 C 178.777344 143.710938 178.652344 143.714844 178.546875 143.714844 C 178.34375 143.722656 178.234375 143.722656 178.234375 143.722656 C 178.234375 143.722656 178.339844 143.738281 178.546875 143.757812 C 178.648438 143.769531 178.773438 143.785156 178.921875 143.800781 C 178.996094 143.808594 179.074219 143.8125 179.160156 143.824219 C 179.242188 143.839844 179.332031 143.851562 179.429688 143.867188 C 179.617188 143.894531 179.828125 143.921875 180.054688 143.960938 C 180.277344 144.003906 180.523438 144.050781 180.78125 144.097656 C 180.816406 144.105469 180.847656 144.113281 180.882812 144.117188 C 180.914062 144.125 180.945312 144.132812 180.980469 144.140625 C 181.046875 144.15625 181.113281 144.175781 181.183594 144.191406 C 181.320312 144.222656 181.460938 144.257812 181.601562 144.292969 C 181.75 144.324219 181.894531 144.371094 182.042969 144.414062 C 182.191406 144.457031 182.34375 144.5 182.5 144.542969 C 182.65625 144.589844 182.8125 144.648438 182.972656 144.699219 C 183.050781 144.726562 183.132812 144.753906 183.214844 144.78125 C 183.296875 144.808594 183.378906 144.835938 183.457031 144.867188 C 183.621094 144.929688 183.785156 144.996094 183.957031 145.058594 C 184.039062 145.09375 184.125 145.121094 184.207031 145.160156 C 184.292969 145.195312 184.375 145.234375 184.460938 145.269531 C 184.628906 145.34375 184.800781 145.421875 184.976562 145.5 C 185.144531 145.582031 185.316406 145.667969 185.492188 145.753906 C 185.578125 145.796875 185.667969 145.839844 185.753906 145.886719 C 185.839844 145.933594 185.925781 145.980469 186.011719 146.027344 C 186.097656 146.078125 186.183594 146.125 186.273438 146.171875 C 186.359375 146.222656 186.449219 146.265625 186.535156 146.320312 C 187.230469 146.730469 187.914062 147.203125 188.582031 147.71875 C 188.746094 147.851562 188.910156 147.984375 189.078125 148.121094 C 189.160156 148.183594 189.238281 148.257812 189.320312 148.328125 C 189.398438 148.398438 189.476562 148.46875 189.558594 148.539062 C 189.636719 148.613281 189.71875 148.679688 189.796875 148.753906 L 190.257812 149.199219 L 190.371094 149.3125 L 190.484375 149.429688 C 190.628906 149.585938 190.777344 149.742188 190.925781 149.898438 C 191.066406 150.058594 191.203125 150.222656 191.34375 150.382812 C 191.484375 150.542969 191.613281 150.714844 191.746094 150.878906 C 191.878906 151.046875 192.011719 151.210938 192.132812 151.386719 C 192.636719 152.0625 193.066406 152.773438 193.460938 153.480469 C 193.554688 153.65625 193.648438 153.832031 193.742188 154.007812 C 193.828125 154.183594 193.910156 154.363281 193.996094 154.539062 C 194.035156 154.625 194.078125 154.710938 194.121094 154.800781 C 194.15625 154.886719 194.191406 154.976562 194.230469 155.0625 C 194.304688 155.238281 194.375 155.410156 194.449219 155.582031 C 194.707031 156.277344 194.941406 156.941406 195.101562 157.566406 C 195.144531 157.726562 195.183594 157.878906 195.226562 158.027344 C 195.257812 158.179688 195.292969 158.328125 195.324219 158.472656 C 195.355469 158.617188 195.386719 158.761719 195.417969 158.898438 C 195.445312 159.035156 195.46875 159.171875 195.488281 159.300781 C 195.511719 159.429688 195.535156 159.558594 195.554688 159.679688 C 195.566406 159.738281 195.578125 159.800781 195.582031 159.859375 C 195.589844 159.917969 195.597656 159.976562 195.605469 160.03125 C 195.636719 160.261719 195.664062 160.46875 195.6875 160.660156 C 195.71875 161.039062 195.746094 161.339844 195.765625 161.546875 C 195.777344 161.75 195.785156 161.859375 195.785156 161.859375 C 195.785156 161.859375 195.785156 161.832031 195.792969 161.78125 C 195.792969 161.726562 195.800781 161.648438 195.808594 161.542969 C 195.8125 161.339844 195.828125 161.039062 195.835938 160.65625 C 195.824219 160.269531 195.832031 159.796875 195.773438 159.261719 C 195.761719 159.128906 195.75 158.992188 195.738281 158.847656 " fill-opacity="1" fill-rule="nonzero"/><path fill="#f68712" d="M 177.015625 179.394531 C 176.824219 179.371094 176.617188 179.339844 176.386719 179.3125 C 176.332031 179.304688 176.273438 179.296875 176.214844 179.292969 C 176.15625 179.285156 176.097656 179.277344 176.035156 179.265625 C 175.914062 179.242188 175.785156 179.222656 175.65625 179.199219 C 175.523438 179.179688 175.390625 179.15625 175.25 179.132812 C 175.113281 179.101562 174.972656 179.070312 174.828125 179.039062 C 174.683594 179.007812 174.535156 178.972656 174.382812 178.941406 C 174.234375 178.902344 174.078125 178.859375 173.921875 178.816406 C 173.292969 178.65625 172.628906 178.429688 171.933594 178.171875 C 171.765625 178.097656 171.589844 178.027344 171.414062 177.953125 C 171.328125 177.917969 171.238281 177.882812 171.152344 177.84375 C 171.0625 177.804688 170.976562 177.761719 170.890625 177.71875 C 170.714844 177.636719 170.535156 177.554688 170.359375 177.46875 C 170.183594 177.375 170.003906 177.285156 169.828125 177.191406 C 169.121094 176.800781 168.40625 176.371094 167.730469 175.867188 C 167.554688 175.75 167.390625 175.613281 167.222656 175.484375 C 167.054688 175.351562 166.886719 175.222656 166.726562 175.082031 C 166.5625 174.945312 166.398438 174.804688 166.238281 174.664062 C 166.082031 174.519531 165.925781 174.371094 165.769531 174.226562 L 165.652344 174.117188 L 165.539062 174 L 165.316406 173.769531 L 165.089844 173.542969 C 165.015625 173.460938 164.949219 173.382812 164.875 173.304688 C 164.804688 173.222656 164.734375 173.144531 164.664062 173.066406 C 164.59375 172.984375 164.519531 172.90625 164.453125 172.824219 C 164.320312 172.660156 164.183594 172.496094 164.050781 172.332031 C 163.535156 171.664062 163.058594 170.980469 162.648438 170.285156 C 162.59375 170.203125 162.546875 170.113281 162.496094 170.027344 C 162.449219 169.9375 162.402344 169.851562 162.351562 169.765625 C 162.304688 169.679688 162.257812 169.59375 162.210938 169.507812 C 162.160156 169.421875 162.121094 169.332031 162.078125 169.246094 C 161.988281 169.074219 161.902344 168.902344 161.820312 168.730469 C 161.742188 168.558594 161.664062 168.386719 161.589844 168.21875 C 161.550781 168.132812 161.515625 168.046875 161.476562 167.964844 C 161.441406 167.882812 161.410156 167.796875 161.378906 167.710938 C 161.3125 167.542969 161.246094 167.378906 161.183594 167.21875 C 161.148438 167.136719 161.125 167.054688 161.097656 166.972656 C 161.070312 166.890625 161.042969 166.808594 161.015625 166.730469 C 160.960938 166.570312 160.902344 166.414062 160.855469 166.257812 C 160.8125 166.105469 160.769531 165.953125 160.722656 165.800781 C 160.683594 165.652344 160.632812 165.507812 160.601562 165.363281 C 160.566406 165.21875 160.53125 165.078125 160.5 164.941406 C 160.480469 164.875 160.464844 164.804688 160.449219 164.738281 C 160.441406 164.707031 160.433594 164.671875 160.425781 164.640625 C 160.417969 164.609375 160.414062 164.574219 160.40625 164.542969 C 160.355469 164.28125 160.3125 164.039062 160.265625 163.8125 C 160.226562 163.585938 160.195312 163.378906 160.167969 163.1875 C 160.152344 163.09375 160.140625 163.003906 160.128906 162.921875 C 160.117188 162.835938 160.109375 162.757812 160.101562 162.683594 C 160.082031 162.535156 160.070312 162.410156 160.058594 162.308594 C 160.035156 162.101562 160.023438 161.996094 160.023438 161.996094 C 160.023438 161.996094 160.019531 162.105469 160.015625 162.308594 C 160.015625 162.410156 160.011719 162.539062 160.011719 162.6875 C 160.007812 162.761719 160.003906 162.84375 160.007812 162.929688 C 160.011719 163.015625 160.015625 163.105469 160.019531 163.203125 C 160.027344 163.394531 160.035156 163.609375 160.046875 163.839844 C 160.070312 164.070312 160.097656 164.324219 160.125 164.589844 C 160.128906 164.625 160.128906 164.660156 160.132812 164.691406 C 160.140625 164.726562 160.144531 164.757812 160.148438 164.792969 C 160.160156 164.863281 160.171875 164.933594 160.179688 165.003906 C 160.203125 165.144531 160.226562 165.289062 160.25 165.441406 C 160.265625 165.589844 160.304688 165.742188 160.335938 165.894531 C 160.371094 166.050781 160.402344 166.210938 160.4375 166.375 C 160.453125 166.457031 160.476562 166.535156 160.5 166.617188 C 160.519531 166.699219 160.542969 166.78125 160.566406 166.867188 C 160.589844 166.949219 160.609375 167.035156 160.632812 167.121094 C 160.65625 167.203125 160.679688 167.292969 160.707031 167.375 C 160.761719 167.546875 160.820312 167.722656 160.875 167.898438 C 160.90625 167.984375 160.933594 168.074219 160.964844 168.164062 C 161 168.25 161.03125 168.339844 161.066406 168.429688 C 161.136719 168.605469 161.203125 168.789062 161.277344 168.972656 C 161.355469 169.152344 161.4375 169.332031 161.519531 169.515625 C 161.5625 169.605469 161.597656 169.699219 161.644531 169.792969 C 161.691406 169.882812 161.738281 169.972656 161.785156 170.066406 C 161.828125 170.15625 161.875 170.25 161.921875 170.339844 C 161.972656 170.433594 162.015625 170.527344 162.070312 170.617188 C 162.175781 170.796875 162.277344 170.980469 162.382812 171.164062 C 162.4375 171.257812 162.492188 171.347656 162.550781 171.4375 C 162.609375 171.527344 162.667969 171.617188 162.726562 171.707031 C 162.785156 171.800781 162.84375 171.890625 162.902344 171.980469 C 162.960938 172.070312 163.027344 172.15625 163.089844 172.246094 C 163.152344 172.335938 163.21875 172.425781 163.28125 172.515625 C 163.34375 172.601562 163.40625 172.691406 163.476562 172.777344 C 163.613281 172.949219 163.75 173.121094 163.886719 173.296875 C 163.953125 173.382812 164.027344 173.464844 164.101562 173.550781 C 164.175781 173.632812 164.25 173.71875 164.324219 173.800781 C 164.398438 173.882812 164.46875 173.96875 164.546875 174.050781 L 164.777344 174.289062 L 165.011719 174.53125 L 165.128906 174.648438 L 165.25 174.765625 C 165.414062 174.917969 165.578125 175.070312 165.742188 175.222656 C 165.910156 175.367188 166.082031 175.511719 166.25 175.65625 C 166.417969 175.800781 166.597656 175.933594 166.773438 176.066406 C 166.949219 176.199219 167.125 176.335938 167.308594 176.457031 C 167.488281 176.582031 167.667969 176.707031 167.847656 176.828125 C 168.035156 176.941406 168.21875 177.054688 168.402344 177.167969 C 168.585938 177.285156 168.777344 177.378906 168.960938 177.484375 C 169.148438 177.585938 169.332031 177.691406 169.523438 177.777344 C 169.710938 177.871094 169.898438 177.957031 170.082031 178.046875 C 170.269531 178.132812 170.457031 178.207031 170.640625 178.285156 C 170.734375 178.324219 170.828125 178.363281 170.917969 178.402344 C 171.011719 178.4375 171.105469 178.46875 171.199219 178.503906 C 171.382812 178.570312 171.5625 178.636719 171.746094 178.699219 C 172.472656 178.929688 173.171875 179.121094 173.824219 179.238281 C 173.988281 179.269531 174.148438 179.300781 174.304688 179.328125 C 174.460938 179.355469 174.617188 179.375 174.765625 179.390625 C 174.917969 179.410156 175.0625 179.429688 175.203125 179.449219 C 175.347656 179.460938 175.484375 179.472656 175.621094 179.484375 C 176.15625 179.539062 176.628906 179.527344 177.011719 179.542969 C 177.394531 179.53125 177.695312 179.515625 177.902344 179.511719 C 178.003906 179.503906 178.082031 179.496094 178.136719 179.492188 C 178.191406 179.488281 178.21875 179.484375 178.21875 179.484375 C 178.21875 179.484375 178.109375 179.480469 177.902344 179.464844 C 177.699219 179.449219 177.398438 179.421875 177.015625 179.394531 " fill-opacity="1" fill-rule="nonzero"/><path fill="#f68712" d="M 177.957031 171.882812 C 172.277344 171.914062 167.652344 167.335938 167.625 161.660156 C 167.59375 155.984375 172.171875 151.359375 177.847656 151.328125 C 183.523438 151.300781 188.148438 155.875 188.179688 161.554688 C 188.207031 167.230469 183.632812 171.855469 177.957031 171.882812 Z M 177.882812 148.964844 C 174.503906 148.972656 171.332031 150.289062 168.949219 152.683594 C 166.566406 155.074219 165.257812 158.25 165.261719 161.625 C 165.265625 165.003906 166.585938 168.175781 168.980469 170.558594 C 171.371094 172.941406 174.546875 174.253906 177.921875 174.246094 C 181.300781 174.242188 184.472656 172.921875 186.855469 170.527344 C 189.238281 168.136719 190.546875 164.960938 190.542969 161.585938 C 190.535156 158.210938 189.21875 155.035156 186.824219 152.652344 C 184.433594 150.269531 181.257812 148.960938 177.882812 148.964844 " fill-opacity="1" fill-rule="nonzero"/><path fill="#f68712" d="M 172.425781 155.875 C 172.339844 155.964844 172.253906 156.054688 172.171875 156.144531 C 175.261719 153.296875 180.074219 153.355469 183.089844 156.34375 C 186.109375 159.328125 186.21875 164.140625 183.402344 167.257812 C 183.492188 167.175781 183.582031 167.089844 183.667969 167.003906 C 186.742188 163.898438 186.714844 158.890625 183.609375 155.820312 C 180.507812 152.746094 175.5 152.769531 172.425781 155.875 " fill-opacity="1" fill-rule="nonzero"/><path fill="#f68712" d="M 177.023438 188.972656 C 176.925781 188.964844 176.820312 188.957031 176.707031 188.949219 C 176.59375 188.9375 176.46875 188.925781 176.335938 188.917969 C 176.207031 188.902344 176.066406 188.886719 175.921875 188.875 C 175.847656 188.867188 175.769531 188.859375 175.695312 188.851562 C 175.617188 188.839844 175.539062 188.832031 175.457031 188.820312 C 175.292969 188.800781 175.125 188.777344 174.949219 188.753906 C 174.773438 188.726562 174.589844 188.699219 174.398438 188.671875 C 174.210938 188.640625 174.015625 188.605469 173.8125 188.570312 C 173.609375 188.539062 173.402344 188.492188 173.1875 188.453125 C 172.972656 188.410156 172.753906 188.359375 172.53125 188.308594 C 172.082031 188.207031 171.613281 188.089844 171.125 187.953125 C 170.882812 187.886719 170.636719 187.8125 170.386719 187.738281 C 170.261719 187.695312 170.136719 187.65625 170.007812 187.613281 C 169.882812 187.570312 169.753906 187.53125 169.625 187.484375 C 169.371094 187.394531 169.109375 187.308594 168.847656 187.207031 C 168.714844 187.15625 168.582031 187.109375 168.453125 187.058594 C 168.320312 187.003906 168.1875 186.949219 168.054688 186.898438 C 167.917969 186.84375 167.785156 186.789062 167.652344 186.730469 C 167.519531 186.671875 167.382812 186.613281 167.246094 186.554688 C 166.980469 186.429688 166.707031 186.308594 166.4375 186.171875 C 165.890625 185.910156 165.34375 185.621094 164.800781 185.3125 C 164.664062 185.234375 164.527344 185.15625 164.390625 185.078125 C 164.253906 184.996094 164.121094 184.910156 163.984375 184.828125 C 163.847656 184.75 163.710938 184.664062 163.578125 184.574219 C 163.441406 184.488281 163.304688 184.40625 163.171875 184.3125 C 163.039062 184.222656 162.902344 184.132812 162.769531 184.042969 C 162.636719 183.949219 162.503906 183.855469 162.371094 183.761719 C 162.304688 183.714844 162.234375 183.667969 162.171875 183.621094 C 162.105469 183.570312 162.039062 183.523438 161.972656 183.472656 C 161.84375 183.375 161.707031 183.28125 161.578125 183.179688 C 160.535156 182.375 159.527344 181.492188 158.59375 180.535156 C 158.125 180.058594 157.675781 179.566406 157.246094 179.054688 C 157.027344 178.804688 156.820312 178.542969 156.613281 178.289062 C 156.410156 178.027344 156.203125 177.765625 156.011719 177.5 C 155.621094 176.96875 155.253906 176.429688 154.910156 175.882812 C 154.734375 175.613281 154.570312 175.335938 154.40625 175.0625 C 154.25 174.785156 154.089844 174.515625 153.941406 174.238281 C 153.789062 173.964844 153.648438 173.683594 153.507812 173.410156 C 153.441406 173.273438 153.375 173.132812 153.308594 172.996094 C 153.242188 172.859375 153.175781 172.722656 153.113281 172.585938 C 153.050781 172.449219 152.988281 172.308594 152.925781 172.175781 C 152.867188 172.039062 152.808594 171.898438 152.75 171.765625 C 152.722656 171.695312 152.691406 171.628906 152.664062 171.5625 C 152.636719 171.492188 152.609375 171.425781 152.582031 171.355469 C 152.527344 171.222656 152.472656 171.085938 152.421875 170.953125 C 152.21875 170.414062 152.027344 169.886719 151.867188 169.367188 C 151.695312 168.851562 151.554688 168.347656 151.425781 167.859375 C 151.363281 167.613281 151.308594 167.375 151.25 167.140625 C 151.199219 166.902344 151.148438 166.675781 151.097656 166.449219 C 151.054688 166.222656 151.011719 166.003906 150.96875 165.789062 C 150.933594 165.574219 150.894531 165.367188 150.859375 165.164062 C 150.734375 164.351562 150.65625 163.636719 150.597656 163.046875 C 150.589844 162.902344 150.578125 162.761719 150.570312 162.628906 C 150.558594 162.5 150.546875 162.375 150.542969 162.261719 C 150.527344 162.03125 150.519531 161.835938 150.507812 161.675781 C 150.496094 161.359375 150.492188 161.191406 150.492188 161.191406 C 150.492188 161.191406 150.480469 161.359375 150.464844 161.675781 C 150.460938 161.835938 150.457031 162.03125 150.449219 162.261719 C 150.445312 162.492188 150.449219 162.757812 150.449219 163.054688 C 150.464844 163.648438 150.492188 164.375 150.578125 165.199219 C 150.601562 165.40625 150.625 165.621094 150.648438 165.839844 C 150.679688 166.058594 150.710938 166.28125 150.742188 166.511719 C 150.777344 166.742188 150.820312 166.980469 150.859375 167.21875 C 150.910156 167.460938 150.953125 167.707031 151.007812 167.957031 C 151.117188 168.457031 151.234375 168.980469 151.382812 169.511719 C 151.527344 170.046875 151.707031 170.589844 151.894531 171.148438 C 152.285156 172.253906 152.761719 173.40625 153.355469 174.546875 C 153.496094 174.835938 153.65625 175.117188 153.8125 175.40625 C 153.976562 175.6875 154.136719 175.976562 154.3125 176.253906 C 154.484375 176.539062 154.667969 176.816406 154.847656 177.097656 C 155.039062 177.375 155.222656 177.65625 155.425781 177.925781 C 155.621094 178.203125 155.828125 178.472656 156.03125 178.742188 C 156.242188 179.007812 156.453125 179.277344 156.675781 179.535156 C 157.117188 180.058594 157.578125 180.570312 158.058594 181.058594 C 159.023438 182.039062 160.058594 182.945312 161.140625 183.757812 C 162.222656 184.566406 163.347656 185.28125 164.476562 185.890625 C 165.046875 186.195312 165.609375 186.484375 166.175781 186.730469 C 166.457031 186.859375 166.738281 186.976562 167.015625 187.09375 C 167.15625 187.148438 167.296875 187.203125 167.4375 187.257812 C 167.574219 187.3125 167.710938 187.367188 167.851562 187.417969 C 167.988281 187.46875 168.125 187.515625 168.261719 187.566406 C 168.398438 187.617188 168.535156 187.660156 168.671875 187.707031 C 168.941406 187.800781 169.210938 187.882812 169.472656 187.960938 C 169.605469 188.003906 169.738281 188.039062 169.871094 188.074219 C 170 188.109375 170.128906 188.148438 170.257812 188.179688 C 170.519531 188.246094 170.769531 188.3125 171.019531 188.371094 C 171.519531 188.484375 172 188.585938 172.460938 188.664062 C 172.691406 188.699219 172.914062 188.742188 173.132812 188.769531 C 173.351562 188.796875 173.5625 188.832031 173.769531 188.855469 C 173.976562 188.875 174.175781 188.902344 174.367188 188.921875 C 174.5625 188.9375 174.746094 188.953125 174.925781 188.96875 C 175.105469 188.984375 175.277344 188.988281 175.441406 189 C 175.523438 189.003906 175.601562 189.007812 175.679688 189.015625 C 175.757812 189.015625 175.835938 189.019531 175.910156 189.023438 C 176.058594 189.027344 176.199219 189.03125 176.332031 189.035156 C 176.464844 189.039062 176.585938 189.035156 176.703125 189.039062 C 176.820312 189.039062 176.925781 189.039062 177.023438 189.039062 C 177.121094 189.039062 177.210938 189.035156 177.289062 189.03125 C 177.605469 189.023438 177.777344 189.019531 177.777344 189.019531 C 177.777344 189.019531 177.605469 189.011719 177.289062 188.992188 C 177.210938 188.984375 177.121094 188.984375 177.023438 188.972656 " fill-opacity="1" fill-rule="nonzero"/><path fill="#f68712" d="M 127.152344 158.890625 C 128.457031 157.359375 130.054688 156.082031 131.863281 155.148438 C 133.425781 146.183594 137.609375 137.871094 144.054688 131.058594 L 142.046875 129.34375 L 144.058594 131.058594 L 144.058594 131.054688 L 142.046875 129.34375 C 142.605469 128.6875 155.941406 113.28125 175.960938 112.371094 C 180.183594 112.179688 184.359375 112.636719 188.46875 113.734375 L 146.902344 89.738281 C 137.621094 84.378906 126.019531 91.078125 126.019531 101.792969 L 126.019531 161.015625 C 126.242188 160.238281 126.621094 159.511719 127.152344 158.890625 " fill-opacity="1" fill-rule="nonzero"/><path fill="#f68712" d="M 177.898438 185.839844 C 177.828125 185.835938 177.722656 185.828125 177.582031 185.816406 C 177.441406 185.808594 177.269531 185.796875 177.066406 185.78125 C 176.964844 185.773438 176.855469 185.765625 176.742188 185.757812 C 176.625 185.75 176.503906 185.734375 176.375 185.71875 C 176.113281 185.691406 175.828125 185.65625 175.519531 185.621094 C 175.207031 185.574219 174.875 185.519531 174.515625 185.464844 C 173.804688 185.335938 173.007812 185.164062 172.148438 184.933594 C 171.933594 184.886719 171.71875 184.8125 171.496094 184.746094 C 171.277344 184.675781 171.054688 184.605469 170.824219 184.535156 C 170.601562 184.457031 170.371094 184.371094 170.140625 184.289062 C 170.023438 184.246094 169.90625 184.207031 169.789062 184.164062 L 169.703125 184.132812 L 169.613281 184.097656 C 169.554688 184.070312 169.496094 184.046875 169.441406 184.023438 C 169.203125 183.925781 168.96875 183.828125 168.726562 183.726562 C 168.605469 183.683594 168.488281 183.621094 168.371094 183.566406 C 168.25 183.511719 168.132812 183.453125 168.011719 183.398438 C 167.890625 183.339844 167.769531 183.285156 167.648438 183.226562 L 167.558594 183.183594 L 167.46875 183.136719 C 167.410156 183.105469 167.347656 183.074219 167.289062 183.042969 C 167.046875 182.914062 166.804688 182.789062 166.5625 182.660156 C 165.605469 182.113281 164.640625 181.5 163.710938 180.808594 C 162.792969 180.109375 161.898438 179.339844 161.0625 178.515625 C 160.230469 177.683594 159.460938 176.792969 158.757812 175.875 C 158.0625 174.949219 157.445312 173.988281 156.894531 173.03125 C 156.765625 172.789062 156.636719 172.546875 156.511719 172.304688 C 156.480469 172.246094 156.445312 172.1875 156.414062 172.128906 C 156.382812 172.070312 156.351562 172.007812 156.324219 171.949219 C 156.265625 171.828125 156.207031 171.707031 156.152344 171.585938 C 156.09375 171.464844 156.039062 171.347656 155.980469 171.226562 C 155.953125 171.167969 155.925781 171.109375 155.898438 171.050781 L 155.855469 170.960938 L 155.820312 170.871094 C 155.71875 170.632812 155.621094 170.394531 155.519531 170.160156 C 155.496094 170.101562 155.472656 170.042969 155.449219 169.984375 C 155.421875 169.929688 155.398438 169.871094 155.378906 169.808594 C 155.335938 169.695312 155.292969 169.578125 155.25 169.460938 C 155.167969 169.230469 155.082031 169 155.003906 168.777344 C 154.929688 168.546875 154.859375 168.324219 154.792969 168.105469 C 154.757812 167.996094 154.722656 167.886719 154.6875 167.777344 C 154.671875 167.722656 154.652344 167.671875 154.640625 167.617188 C 154.625 167.5625 154.613281 167.507812 154.597656 167.453125 C 154.363281 166.597656 154.1875 165.800781 154.058594 165.089844 C 154 164.734375 153.945312 164.398438 153.894531 164.089844 C 153.859375 163.777344 153.828125 163.492188 153.796875 163.234375 C 153.78125 163.105469 153.765625 162.980469 153.753906 162.867188 C 153.746094 162.75 153.738281 162.640625 153.730469 162.539062 C 153.714844 162.335938 153.703125 162.167969 153.691406 162.027344 C 153.683594 161.886719 153.675781 161.78125 153.667969 161.707031 C 153.664062 161.632812 153.660156 161.597656 153.660156 161.597656 C 153.660156 161.597656 153.65625 161.632812 153.65625 161.707031 C 153.65625 161.78125 153.652344 161.886719 153.648438 162.027344 C 153.648438 162.167969 153.644531 162.339844 153.640625 162.542969 C 153.636719 162.644531 153.636719 162.753906 153.632812 162.871094 C 153.636719 162.988281 153.644531 163.113281 153.648438 163.242188 C 153.65625 163.503906 153.667969 163.796875 153.679688 164.109375 C 153.703125 164.425781 153.742188 164.765625 153.773438 165.132812 C 153.785156 165.222656 153.789062 165.316406 153.804688 165.410156 C 153.820312 165.503906 153.832031 165.597656 153.847656 165.691406 C 153.875 165.886719 153.902344 166.082031 153.933594 166.285156 C 153.949219 166.390625 153.960938 166.492188 153.980469 166.597656 C 154.003906 166.699219 154.023438 166.804688 154.046875 166.910156 C 154.089844 167.121094 154.132812 167.335938 154.179688 167.558594 C 154.191406 167.613281 154.203125 167.671875 154.214844 167.726562 C 154.226562 167.78125 154.242188 167.835938 154.253906 167.894531 C 154.285156 168.003906 154.3125 168.117188 154.34375 168.230469 C 154.402344 168.457031 154.460938 168.691406 154.523438 168.925781 C 154.597656 169.160156 154.671875 169.394531 154.746094 169.636719 C 154.785156 169.757812 154.824219 169.875 154.863281 170 C 154.882812 170.0625 154.902344 170.121094 154.925781 170.179688 C 154.949219 170.242188 154.972656 170.300781 154.996094 170.363281 C 155.085938 170.605469 155.179688 170.851562 155.273438 171.101562 L 155.308594 171.195312 L 155.347656 171.285156 C 155.375 171.347656 155.402344 171.410156 155.425781 171.472656 C 155.480469 171.59375 155.535156 171.71875 155.589844 171.84375 C 155.644531 171.96875 155.699219 172.09375 155.753906 172.222656 C 155.78125 172.285156 155.8125 172.347656 155.84375 172.410156 C 155.875 172.46875 155.90625 172.53125 155.933594 172.59375 C 156.058594 172.84375 156.183594 173.097656 156.3125 173.351562 C 156.449219 173.597656 156.589844 173.847656 156.730469 174.097656 C 156.765625 174.160156 156.800781 174.222656 156.835938 174.285156 L 156.890625 174.382812 C 156.910156 174.410156 156.929688 174.441406 156.949219 174.472656 C 157.027344 174.597656 157.105469 174.71875 157.179688 174.84375 C 157.257812 174.964844 157.335938 175.089844 157.417969 175.214844 C 157.457031 175.277344 157.496094 175.339844 157.535156 175.402344 C 157.578125 175.460938 157.617188 175.523438 157.660156 175.582031 C 157.832031 175.824219 158.003906 176.066406 158.175781 176.308594 C 158.886719 177.265625 159.679688 178.1875 160.53125 179.046875 C 161.398438 179.894531 162.320312 180.683594 163.28125 181.394531 C 163.523438 181.566406 163.765625 181.734375 164.007812 181.902344 C 164.070312 181.945312 164.128906 181.988281 164.191406 182.03125 C 164.253906 182.070312 164.316406 182.109375 164.378906 182.148438 C 164.503906 182.226562 164.628906 182.300781 164.75 182.378906 C 164.875 182.457031 165 182.535156 165.121094 182.613281 C 165.183594 182.652344 165.246094 182.6875 165.308594 182.722656 C 165.371094 182.757812 165.433594 182.792969 165.496094 182.828125 C 165.75 182.96875 166 183.105469 166.246094 183.242188 C 166.5 183.371094 166.753906 183.492188 167.003906 183.617188 C 167.066406 183.648438 167.128906 183.679688 167.191406 183.710938 L 167.285156 183.753906 C 167.316406 183.769531 167.347656 183.785156 167.378906 183.796875 C 167.503906 183.851562 167.628906 183.90625 167.753906 183.960938 C 167.882812 184.011719 168.003906 184.066406 168.128906 184.121094 C 168.253906 184.171875 168.375 184.230469 168.5 184.273438 C 168.75 184.367188 168.996094 184.457031 169.242188 184.546875 C 169.300781 184.570312 169.363281 184.59375 169.421875 184.617188 L 169.511719 184.648438 L 169.605469 184.679688 C 169.726562 184.714844 169.847656 184.753906 169.96875 184.792969 C 170.207031 184.867188 170.445312 184.945312 170.679688 185.015625 C 170.914062 185.074219 171.148438 185.132812 171.375 185.191406 C 171.601562 185.25 171.824219 185.3125 172.046875 185.351562 C 172.269531 185.398438 172.484375 185.441406 172.695312 185.484375 C 172.800781 185.503906 172.90625 185.527344 173.011719 185.546875 C 173.113281 185.5625 173.21875 185.578125 173.320312 185.59375 C 173.523438 185.621094 173.722656 185.652344 173.914062 185.679688 C 174.011719 185.691406 174.105469 185.707031 174.199219 185.71875 C 174.292969 185.730469 174.386719 185.738281 174.476562 185.746094 C 174.839844 185.777344 175.179688 185.816406 175.496094 185.835938 C 175.8125 185.847656 176.105469 185.859375 176.367188 185.867188 C 176.496094 185.871094 176.621094 185.878906 176.738281 185.878906 C 176.855469 185.875 176.964844 185.871094 177.0625 185.871094 C 177.269531 185.867188 177.441406 185.863281 177.582031 185.859375 C 177.71875 185.855469 177.828125 185.851562 177.898438 185.851562 C 177.9375 185.851562 177.964844 185.847656 177.980469 185.847656 C 178 185.847656 178.007812 185.847656 178.007812 185.847656 C 178.007812 185.847656 178 185.847656 177.980469 185.84375 C 177.964844 185.84375 177.9375 185.84375 177.898438 185.839844 " fill-opacity="1" fill-rule="nonzero"/><path fill="#f68712" d="M 177.828125 182.65625 C 177.585938 182.636719 177.230469 182.613281 176.777344 182.574219 C 176.550781 182.550781 176.304688 182.519531 176.035156 182.488281 C 175.96875 182.480469 175.898438 182.472656 175.828125 182.460938 C 175.757812 182.453125 175.6875 182.441406 175.613281 182.429688 C 175.46875 182.40625 175.320312 182.378906 175.164062 182.355469 C 175.085938 182.34375 175.007812 182.328125 174.929688 182.316406 C 174.847656 182.304688 174.765625 182.292969 174.6875 182.273438 C 174.523438 182.238281 174.355469 182.203125 174.183594 182.164062 C 174.097656 182.144531 174.011719 182.128906 173.921875 182.109375 C 173.832031 182.089844 173.746094 182.074219 173.65625 182.050781 C 173.476562 182.003906 173.292969 181.957031 173.109375 181.90625 C 172.734375 181.820312 172.351562 181.6875 171.957031 181.566406 C 171.757812 181.507812 171.5625 181.429688 171.359375 181.359375 C 171.257812 181.324219 171.160156 181.289062 171.054688 181.25 C 171.003906 181.230469 170.953125 181.214844 170.902344 181.195312 C 170.851562 181.175781 170.800781 181.160156 170.75 181.136719 C 170.546875 181.050781 170.339844 180.964844 170.132812 180.878906 C 170.082031 180.859375 170.027344 180.835938 169.976562 180.816406 C 169.921875 180.792969 169.871094 180.773438 169.820312 180.746094 C 169.714844 180.699219 169.613281 180.648438 169.507812 180.601562 C 169.402344 180.550781 169.300781 180.5 169.195312 180.453125 C 169.089844 180.402344 168.980469 180.355469 168.878906 180.296875 C 168.667969 180.1875 168.460938 180.078125 168.246094 179.96875 C 168.195312 179.941406 168.140625 179.910156 168.089844 179.882812 C 168.039062 179.851562 167.984375 179.820312 167.933594 179.792969 C 167.828125 179.730469 167.726562 179.667969 167.621094 179.609375 C 167.515625 179.546875 167.410156 179.484375 167.304688 179.421875 L 167.148438 179.328125 C 167.097656 179.292969 167.046875 179.261719 166.992188 179.226562 C 166.789062 179.089844 166.578125 178.957031 166.371094 178.820312 C 166.171875 178.675781 165.964844 178.53125 165.761719 178.386719 L 165.609375 178.277344 C 165.558594 178.238281 165.511719 178.199219 165.460938 178.160156 C 165.363281 178.082031 165.261719 178.003906 165.164062 177.925781 C 165.066406 177.847656 164.964844 177.769531 164.867188 177.691406 C 164.765625 177.613281 164.671875 177.527344 164.574219 177.445312 C 164.480469 177.363281 164.382812 177.277344 164.285156 177.195312 L 164.140625 177.070312 L 164 176.945312 C 163.816406 176.769531 163.628906 176.59375 163.445312 176.417969 C 162.71875 175.703125 162.039062 174.945312 161.421875 174.152344 C 160.816406 173.351562 160.261719 172.53125 159.78125 171.707031 L 159.734375 171.628906 L 159.691406 171.550781 C 159.664062 171.496094 159.636719 171.445312 159.609375 171.394531 C 159.550781 171.289062 159.496094 171.183594 159.4375 171.082031 C 159.382812 170.976562 159.328125 170.875 159.273438 170.773438 C 159.21875 170.667969 159.167969 170.5625 159.117188 170.460938 C 159.019531 170.253906 158.917969 170.046875 158.820312 169.84375 C 158.730469 169.636719 158.644531 169.433594 158.558594 169.230469 C 158.515625 169.128906 158.46875 169.027344 158.425781 168.929688 C 158.386719 168.828125 158.351562 168.726562 158.3125 168.628906 C 158.238281 168.425781 158.164062 168.230469 158.089844 168.035156 L 158.0625 167.964844 L 158.039062 167.890625 C 158.023438 167.839844 158.007812 167.792969 157.992188 167.742188 C 157.960938 167.648438 157.929688 167.550781 157.898438 167.457031 C 157.867188 167.359375 157.839844 167.265625 157.808594 167.171875 C 157.777344 167.078125 157.746094 166.988281 157.722656 166.894531 C 157.671875 166.707031 157.621094 166.527344 157.574219 166.347656 C 157.523438 166.171875 157.472656 165.996094 157.4375 165.824219 C 157.398438 165.652344 157.359375 165.488281 157.324219 165.324219 C 157.304688 165.242188 157.289062 165.164062 157.269531 165.082031 C 157.261719 165.042969 157.25 165.007812 157.242188 164.964844 C 157.238281 164.925781 157.230469 164.886719 157.222656 164.847656 C 157.167969 164.539062 157.121094 164.25 157.070312 163.980469 C 157.03125 163.710938 157 163.464844 156.96875 163.238281 C 156.957031 163.128906 156.941406 163.019531 156.929688 162.921875 C 156.917969 162.820312 156.910156 162.726562 156.902344 162.640625 C 156.886719 162.464844 156.871094 162.316406 156.863281 162.191406 C 156.839844 161.953125 156.828125 161.820312 156.828125 161.820312 C 156.828125 161.820312 156.824219 161.953125 156.820312 162.195312 C 156.816406 162.316406 156.816406 162.464844 156.8125 162.644531 C 156.808594 162.730469 156.804688 162.828125 156.808594 162.929688 C 156.8125 163.03125 156.816406 163.136719 156.820312 163.25 C 156.832031 163.480469 156.839844 163.730469 156.851562 164.007812 C 156.878906 164.28125 156.910156 164.578125 156.9375 164.894531 C 156.945312 164.933594 156.945312 164.972656 156.953125 165.011719 C 156.957031 165.054688 156.960938 165.09375 156.96875 165.132812 C 156.980469 165.214844 156.992188 165.296875 157.003906 165.382812 C 157.03125 165.550781 157.054688 165.722656 157.082031 165.898438 C 157.105469 166.078125 157.148438 166.253906 157.183594 166.4375 C 157.222656 166.621094 157.261719 166.8125 157.300781 167.003906 C 157.320312 167.101562 157.347656 167.195312 157.371094 167.292969 C 157.398438 167.390625 157.421875 167.488281 157.449219 167.585938 C 157.476562 167.6875 157.503906 167.785156 157.527344 167.886719 C 157.542969 167.9375 157.554688 167.988281 157.570312 168.039062 L 157.589844 168.117188 L 157.613281 168.191406 C 157.679688 168.394531 157.742188 168.597656 157.8125 168.808594 C 157.84375 168.910156 157.878906 169.019531 157.914062 169.125 C 157.953125 169.226562 157.992188 169.332031 158.03125 169.4375 C 158.113281 169.648438 158.195312 169.863281 158.277344 170.082031 C 158.371094 170.292969 158.464844 170.507812 158.558594 170.726562 C 158.605469 170.832031 158.652344 170.945312 158.703125 171.050781 C 158.757812 171.160156 158.8125 171.265625 158.867188 171.375 C 158.921875 171.484375 158.976562 171.59375 159.03125 171.703125 C 159.058594 171.757812 159.085938 171.8125 159.113281 171.867188 L 159.15625 171.949219 L 159.199219 172.027344 C 159.324219 172.242188 159.445312 172.460938 159.570312 172.679688 C 159.601562 172.734375 159.632812 172.789062 159.664062 172.84375 C 159.695312 172.894531 159.730469 172.949219 159.765625 173.003906 C 159.832031 173.109375 159.898438 173.214844 159.96875 173.324219 C 160.035156 173.429688 160.105469 173.539062 160.171875 173.648438 C 160.207031 173.699219 160.246094 173.753906 160.28125 173.804688 L 160.390625 173.964844 C 160.542969 174.171875 160.6875 174.382812 160.84375 174.59375 C 161.46875 175.421875 162.171875 176.214844 162.921875 176.953125 C 163.113281 177.136719 163.308594 177.316406 163.5 177.496094 L 163.570312 177.566406 L 163.648438 177.628906 L 163.796875 177.757812 C 163.898438 177.84375 163.996094 177.925781 164.097656 178.011719 C 164.199219 178.097656 164.292969 178.1875 164.398438 178.265625 C 164.503906 178.34375 164.605469 178.425781 164.710938 178.503906 C 164.8125 178.585938 164.917969 178.664062 165.019531 178.742188 C 165.074219 178.785156 165.125 178.824219 165.175781 178.863281 L 165.335938 178.972656 C 165.550781 179.121094 165.761719 179.269531 165.972656 179.414062 C 166.191406 179.554688 166.410156 179.6875 166.625 179.820312 C 166.679688 179.855469 166.734375 179.886719 166.785156 179.921875 L 166.867188 179.972656 L 166.949219 180.019531 C 167.0625 180.078125 167.171875 180.140625 167.28125 180.199219 C 167.390625 180.261719 167.5 180.324219 167.609375 180.382812 C 167.664062 180.414062 167.71875 180.441406 167.773438 180.472656 C 167.828125 180.5 167.882812 180.527344 167.9375 180.554688 C 168.160156 180.664062 168.378906 180.769531 168.597656 180.875 C 168.707031 180.933594 168.820312 180.976562 168.929688 181.023438 C 169.039062 181.070312 169.148438 181.117188 169.257812 181.164062 C 169.367188 181.210938 169.476562 181.257812 169.585938 181.304688 C 169.636719 181.328125 169.691406 181.347656 169.746094 181.367188 C 169.800781 181.386719 169.855469 181.40625 169.910156 181.429688 C 170.128906 181.507812 170.34375 181.585938 170.554688 181.664062 C 170.609375 181.683594 170.664062 181.699219 170.714844 181.714844 C 170.769531 181.734375 170.824219 181.75 170.875 181.765625 C 170.984375 181.800781 171.089844 181.832031 171.191406 181.863281 C 171.402344 181.929688 171.605469 182 171.8125 182.046875 C 172.226562 182.144531 172.621094 182.257812 173.007812 182.324219 C 173.203125 182.363281 173.390625 182.398438 173.574219 182.4375 C 173.667969 182.457031 173.757812 182.46875 173.851562 182.480469 C 173.941406 182.496094 174.03125 182.507812 174.121094 182.519531 C 174.296875 182.542969 174.46875 182.566406 174.636719 182.589844 C 174.71875 182.605469 174.804688 182.609375 174.886719 182.617188 C 174.96875 182.625 175.046875 182.628906 175.128906 182.636719 C 175.285156 182.652344 175.4375 182.664062 175.585938 182.675781 C 175.660156 182.683594 175.734375 182.691406 175.804688 182.695312 C 175.878906 182.699219 175.949219 182.699219 176.015625 182.703125 C 176.292969 182.710938 176.542969 182.71875 176.773438 182.722656 C 177 182.726562 177.203125 182.71875 177.378906 182.710938 C 177.554688 182.707031 177.707031 182.703125 177.828125 182.699219 C 177.949219 182.699219 178.042969 182.6875 178.105469 182.6875 C 178.167969 182.679688 178.199219 182.679688 178.199219 182.679688 C 178.199219 182.679688 178.167969 182.675781 178.105469 182.675781 C 178.042969 182.671875 177.949219 182.667969 177.828125 182.65625 " fill-opacity="1" fill-rule="nonzero"/><path fill="#f68712" d="M 202.125 159.121094 C 202.105469 158.804688 202.066406 158.464844 202.03125 158.097656 C 202.023438 158.007812 202.015625 157.914062 202.003906 157.820312 C 201.988281 157.726562 201.976562 157.632812 201.960938 157.539062 C 201.933594 157.34375 201.902344 157.148438 201.875 156.941406 C 201.859375 156.839844 201.84375 156.738281 201.828125 156.632812 C 201.804688 156.53125 201.785156 156.425781 201.761719 156.320312 C 201.71875 156.109375 201.675781 155.890625 201.628906 155.671875 C 201.589844 155.449219 201.523438 155.226562 201.46875 155 C 201.410156 154.769531 201.347656 154.539062 201.285156 154.300781 C 201.21875 154.070312 201.140625 153.832031 201.0625 153.59375 C 201.027344 153.472656 200.988281 153.351562 200.949219 153.230469 L 200.886719 153.050781 C 200.863281 152.988281 200.839844 152.925781 200.816406 152.867188 C 200.726562 152.625 200.632812 152.378906 200.539062 152.128906 C 200.496094 152.003906 200.4375 151.882812 200.386719 151.757812 C 200.332031 151.632812 200.277344 151.507812 200.222656 151.382812 C 200.167969 151.257812 200.113281 151.132812 200.058594 151.007812 C 200.046875 150.976562 200.03125 150.945312 200.015625 150.914062 L 199.96875 150.820312 C 199.941406 150.757812 199.910156 150.695312 199.878906 150.632812 C 199.753906 150.382812 199.628906 150.132812 199.503906 149.878906 C 199.367188 149.628906 199.226562 149.382812 199.082031 149.128906 C 199.046875 149.066406 199.011719 149.003906 198.976562 148.941406 C 198.941406 148.878906 198.90625 148.816406 198.867188 148.753906 C 198.789062 148.632812 198.710938 148.507812 198.632812 148.386719 C 198.554688 148.261719 198.476562 148.136719 198.398438 148.015625 C 198.359375 147.949219 198.320312 147.886719 198.28125 147.828125 C 198.238281 147.765625 198.199219 147.707031 198.15625 147.644531 C 197.984375 147.402344 197.8125 147.160156 197.644531 146.917969 C 196.929688 145.960938 196.140625 145.039062 195.289062 144.175781 C 194.421875 143.328125 193.5 142.539062 192.542969 141.828125 C 192.296875 141.65625 192.054688 141.488281 191.8125 141.316406 C 191.753906 141.277344 191.691406 141.234375 191.628906 141.191406 C 191.570312 141.152344 191.507812 141.113281 191.445312 141.074219 C 191.320312 140.996094 191.195312 140.917969 191.070312 140.839844 C 190.949219 140.761719 190.824219 140.6875 190.703125 140.609375 C 190.671875 140.589844 190.640625 140.570312 190.609375 140.550781 L 190.515625 140.5 C 190.453125 140.464844 190.390625 140.425781 190.324219 140.390625 C 190.074219 140.253906 189.824219 140.113281 189.574219 139.976562 C 189.320312 139.851562 189.070312 139.726562 188.820312 139.601562 C 188.757812 139.570312 188.695312 139.539062 188.632812 139.507812 C 188.570312 139.480469 188.507812 139.445312 188.445312 139.421875 C 188.320312 139.367188 188.195312 139.3125 188.066406 139.257812 C 187.941406 139.203125 187.820312 139.152344 187.695312 139.097656 C 187.632812 139.070312 187.570312 139.042969 187.507812 139.015625 L 187.417969 138.976562 L 187.324219 138.941406 C 187.074219 138.851562 186.828125 138.757812 186.585938 138.667969 C 186.523438 138.644531 186.460938 138.621094 186.402344 138.601562 C 186.339844 138.578125 186.28125 138.554688 186.21875 138.539062 C 186.097656 138.5 185.976562 138.460938 185.855469 138.421875 C 185.617188 138.347656 185.378906 138.273438 185.148438 138.203125 C 184.910156 138.140625 184.679688 138.082031 184.449219 138.023438 C 184.335938 137.996094 184.222656 137.964844 184.113281 137.9375 C 184.054688 137.925781 184 137.90625 183.945312 137.894531 C 183.890625 137.886719 183.832031 137.875 183.777344 137.863281 C 183.554688 137.816406 183.339844 137.773438 183.128906 137.730469 C 183.023438 137.710938 182.917969 137.6875 182.8125 137.667969 C 182.710938 137.648438 182.605469 137.636719 182.503906 137.621094 C 182.300781 137.59375 182.105469 137.5625 181.910156 137.535156 C 181.816406 137.519531 181.71875 137.507812 181.625 137.496094 C 181.53125 137.480469 181.441406 137.476562 181.347656 137.46875 C 180.984375 137.433594 180.644531 137.398438 180.328125 137.375 C 180.011719 137.363281 179.722656 137.355469 179.460938 137.34375 C 179.328125 137.339844 179.207031 137.335938 179.089844 137.332031 C 178.972656 137.335938 178.863281 137.335938 178.761719 137.339844 C 178.558594 137.34375 178.386719 137.347656 178.246094 137.351562 C 178.105469 137.355469 177.996094 137.355469 177.925781 137.359375 C 177.851562 137.359375 177.816406 137.363281 177.816406 137.363281 C 177.816406 137.363281 177.851562 137.363281 177.925781 137.371094 C 177.996094 137.375 178.105469 137.382812 178.242188 137.394531 C 178.382812 137.40625 178.554688 137.417969 178.757812 137.429688 C 178.859375 137.4375 178.96875 137.445312 179.082031 137.453125 C 179.199219 137.464844 179.320312 137.480469 179.449219 137.492188 C 179.710938 137.523438 179.996094 137.554688 180.308594 137.589844 C 180.617188 137.640625 180.949219 137.691406 181.308594 137.75 C 182.019531 137.878906 182.816406 138.050781 183.675781 138.28125 C 183.726562 138.292969 183.78125 138.308594 183.835938 138.320312 C 183.890625 138.335938 183.945312 138.355469 184 138.371094 C 184.105469 138.402344 184.214844 138.4375 184.324219 138.472656 C 184.546875 138.542969 184.769531 138.609375 185 138.679688 C 185.222656 138.761719 185.453125 138.84375 185.683594 138.929688 C 185.800781 138.96875 185.917969 139.011719 186.035156 139.054688 C 186.09375 139.074219 186.152344 139.097656 186.210938 139.125 C 186.265625 139.148438 186.324219 139.171875 186.382812 139.195312 C 186.617188 139.292969 186.855469 139.390625 187.097656 139.492188 L 187.1875 139.527344 L 187.273438 139.570312 C 187.332031 139.597656 187.394531 139.625 187.453125 139.652344 C 187.570312 139.710938 187.691406 139.765625 187.8125 139.824219 C 187.929688 139.878906 188.050781 139.933594 188.171875 139.992188 C 188.234375 140.019531 188.292969 140.050781 188.355469 140.082031 C 188.414062 140.113281 188.472656 140.144531 188.535156 140.179688 C 188.773438 140.304688 189.015625 140.429688 189.257812 140.558594 C 190.21875 141.105469 191.179688 141.722656 192.109375 142.414062 C 193.027344 143.113281 193.921875 143.882812 194.757812 144.707031 C 195.585938 145.542969 196.355469 146.433594 197.058594 147.351562 C 197.753906 148.277344 198.371094 149.238281 198.917969 150.195312 C 199.050781 150.4375 199.179688 150.679688 199.304688 150.921875 C 199.335938 150.980469 199.367188 151.039062 199.398438 151.097656 L 199.449219 151.1875 L 199.492188 151.28125 C 199.546875 151.402344 199.605469 151.523438 199.664062 151.640625 C 199.71875 151.761719 199.777344 151.882812 199.832031 152 C 199.886719 152.121094 199.949219 152.234375 199.996094 152.359375 C 200.097656 152.597656 200.195312 152.835938 200.292969 153.066406 C 200.316406 153.125 200.339844 153.183594 200.367188 153.242188 L 200.402344 153.328125 L 200.433594 153.417969 C 200.476562 153.535156 200.519531 153.652344 200.5625 153.765625 C 200.644531 154 200.730469 154.226562 200.808594 154.453125 C 200.882812 154.679688 200.953125 154.902344 201.019531 155.125 C 201.089844 155.34375 201.164062 155.558594 201.214844 155.773438 C 201.445312 156.632812 201.621094 157.429688 201.75 158.140625 C 201.804688 158.496094 201.859375 158.832031 201.910156 159.140625 C 201.949219 159.453125 201.980469 159.738281 202.011719 159.996094 C 202.027344 160.125 202.042969 160.246094 202.050781 160.363281 C 202.058594 160.480469 202.070312 160.589844 202.074219 160.6875 C 202.089844 160.890625 202.105469 161.0625 202.113281 161.203125 C 202.125 161.34375 202.132812 161.449219 202.136719 161.523438 C 202.140625 161.558594 202.140625 161.585938 202.144531 161.605469 C 202.144531 161.621094 202.144531 161.632812 202.144531 161.632812 C 202.144531 161.632812 202.144531 161.621094 202.144531 161.605469 C 202.148438 161.585938 202.148438 161.558594 202.148438 161.523438 C 202.152344 161.449219 202.152344 161.34375 202.15625 161.203125 C 202.160156 161.0625 202.160156 160.890625 202.167969 160.6875 C 202.167969 160.585938 202.167969 160.476562 202.171875 160.359375 C 202.171875 160.242188 202.164062 160.121094 202.160156 159.988281 C 202.148438 159.726562 202.140625 159.4375 202.125 159.121094 " fill-opacity="1" fill-rule="nonzero"/><path fill="#f68712" d="M 214.1875 182.917969 C 213.488281 182.921875 212.921875 182.359375 212.917969 181.664062 L 212.792969 157.769531 C 212.789062 157.070312 213.351562 156.503906 214.050781 156.5 C 214.75 156.496094 215.316406 157.058594 215.320312 157.753906 L 215.445312 181.648438 C 215.449219 182.347656 214.882812 182.914062 214.1875 182.917969 Z M 197.726562 165.925781 C 198.085938 165.5625 198.667969 165.558594 199.03125 165.917969 C 199.394531 166.277344 199.398438 166.863281 199.039062 167.226562 C 198.679688 167.589844 198.09375 167.589844 197.730469 167.234375 C 197.371094 166.875 197.367188 166.289062 197.726562 165.925781 Z M 184.847656 193.460938 L 195.496094 182.703125 C 196.90625 181.28125 197.808594 179.476562 198.109375 177.496094 L 199.339844 169.355469 L 199.40625 169.371094 C 199.882812 169.445312 200.328125 169.121094 200.40625 168.648438 L 200.914062 165.507812 C 201.050781 164.65625 200.472656 163.847656 199.617188 163.710938 L 198.226562 163.484375 C 197.371094 163.347656 196.566406 163.929688 196.429688 164.785156 L 195.921875 167.921875 C 195.84375 168.398438 196.164062 168.84375 196.640625 168.921875 L 195.40625 177.085938 C 195.195312 178.492188 194.554688 179.769531 193.554688 180.78125 L 180.359375 194.113281 C 179.566406 194.171875 178.765625 194.203125 177.957031 194.203125 C 159.953125 194.234375 145.332031 179.664062 145.304688 161.660156 C 145.273438 143.65625 159.84375 129.039062 177.847656 129.007812 C 195.851562 128.976562 210.46875 143.546875 210.5 161.550781 C 210.527344 177.191406 199.535156 190.273438 184.847656 193.460938 Z M 141.527344 183.292969 C 140.832031 183.296875 140.261719 182.734375 140.257812 182.039062 L 140.136719 158.144531 C 140.132812 157.445312 140.695312 156.878906 141.390625 156.875 C 142.089844 156.871094 142.65625 157.433594 142.660156 158.128906 L 142.785156 182.023438 C 142.789062 182.722656 142.226562 183.289062 141.527344 183.292969 Z M 216.84375 181.441406 L 216.730469 159.707031 C 216.179688 153.546875 214.171875 147.78125 211.039062 142.734375 C 209.46875 140.203125 207.671875 137.941406 205.707031 135.933594 L 204.808594 136.851562 C 198.113281 129.578125 188.507812 125.027344 177.839844 125.046875 C 167.183594 125.0625 157.59375 129.640625 150.925781 136.929688 L 149.847656 136.011719 C 147.824219 138.089844 145.984375 140.441406 144.386719 143.078125 C 141.308594 148.160156 139.355469 153.941406 138.867188 160.109375 L 138.980469 181.84375 C 138.914062 182.566406 138.714844 183.230469 138.417969 183.828125 C 137.71875 184.9375 136.96875 185.695312 136.214844 186.195312 C 136.066406 186.285156 135.910156 186.371094 135.753906 186.445312 L 135.757812 186.472656 C 134.75 187.011719 133.753906 187.121094 132.871094 187.03125 L 132.867188 187.011719 C 132.648438 186.996094 132.425781 186.964844 132.203125 186.925781 C 131.183594 186.699219 130.398438 186.253906 130.058594 186.035156 C 129.996094 185.996094 129.933594 185.957031 129.875 185.914062 C 128.941406 185.234375 128.089844 184.457031 127.328125 183.59375 C 126.675781 182.851562 126.234375 181.960938 126.019531 181.007812 L 126.019531 214.660156 C 126.019531 225.375 137.621094 232.074219 146.902344 226.714844 L 218.832031 185.1875 C 217.761719 184.289062 217.007812 182.992188 216.84375 181.441406 " fill-opacity="1" fill-rule="nonzero"/><path fill="#f68712" d="M 231.363281 177.742188 L 231.300781 165.726562 C 233.117188 167.097656 234.292969 169.269531 234.304688 171.71875 C 234.320312 174.167969 233.164062 176.351562 231.363281 177.742188 Z M 244.648438 146.171875 L 210.785156 126.621094 C 211.488281 127.257812 212.1875 127.921875 212.882812 128.601562 L 211.03125 130.492188 C 217.667969 137.277344 222.011719 145.628906 223.6875 154.675781 C 225.5 155.589844 227.113281 156.847656 228.4375 158.367188 C 229.351562 159.417969 229.832031 160.773438 229.839844 162.167969 L 229.925781 178.785156 L 244.648438 170.28125 C 253.925781 164.925781 253.925781 151.527344 244.648438 146.171875 " fill-opacity="1" fill-rule="nonzero"/><path fill="#f68712" d="M 198.992188 159.648438 C 198.992188 159.582031 198.988281 159.511719 198.988281 159.4375 C 198.984375 159.367188 198.972656 159.292969 198.96875 159.222656 C 198.953125 159.074219 198.941406 158.917969 198.925781 158.761719 C 198.917969 158.683594 198.914062 158.601562 198.902344 158.519531 C 198.894531 158.4375 198.890625 158.351562 198.878906 158.269531 C 198.851562 158.101562 198.828125 157.929688 198.804688 157.753906 C 198.792969 157.664062 198.777344 157.574219 198.765625 157.484375 C 198.753906 157.394531 198.742188 157.300781 198.71875 157.210938 C 198.683594 157.023438 198.644531 156.835938 198.605469 156.644531 C 198.535156 156.253906 198.421875 155.863281 198.324219 155.449219 C 198.277344 155.242188 198.203125 155.039062 198.140625 154.828125 C 198.105469 154.722656 198.074219 154.617188 198.042969 154.511719 C 198.023438 154.460938 198.007812 154.40625 197.992188 154.351562 C 197.976562 154.296875 197.957031 154.246094 197.9375 154.191406 C 197.859375 153.980469 197.777344 153.765625 197.699219 153.546875 C 197.679688 153.496094 197.65625 153.4375 197.636719 153.386719 C 197.617188 153.328125 197.597656 153.273438 197.570312 153.222656 C 197.527344 153.113281 197.480469 153.003906 197.433594 152.898438 C 197.386719 152.789062 197.339844 152.675781 197.292969 152.566406 C 197.242188 152.457031 197.199219 152.34375 197.144531 152.238281 C 197.035156 152.019531 196.925781 151.800781 196.816406 151.578125 C 196.792969 151.523438 196.761719 151.46875 196.734375 151.414062 C 196.707031 151.359375 196.675781 151.304688 196.644531 151.25 C 196.585938 151.140625 196.523438 151.03125 196.460938 150.921875 C 196.402344 150.8125 196.339844 150.703125 196.277344 150.59375 L 196.230469 150.511719 L 196.179688 150.429688 C 196.148438 150.375 196.117188 150.320312 196.082031 150.269531 C 195.945312 150.050781 195.8125 149.832031 195.671875 149.617188 C 195.527344 149.40625 195.378906 149.195312 195.230469 148.980469 L 195.117188 148.820312 C 195.078125 148.769531 195.039062 148.71875 195 148.667969 C 194.917969 148.5625 194.839844 148.460938 194.757812 148.359375 C 194.679688 148.253906 194.597656 148.148438 194.519531 148.046875 C 194.4375 147.941406 194.347656 147.847656 194.265625 147.746094 C 194.179688 147.644531 194.09375 147.546875 194.007812 147.445312 L 193.878906 147.296875 L 193.746094 147.148438 C 193.566406 146.957031 193.382812 146.765625 193.203125 146.574219 C 192.457031 145.828125 191.664062 145.125 190.832031 144.503906 C 190.625 144.347656 190.410156 144.203125 190.203125 144.054688 L 190.046875 143.945312 C 189.992188 143.90625 189.941406 143.867188 189.882812 143.835938 C 189.777344 143.769531 189.667969 143.699219 189.5625 143.632812 C 189.453125 143.5625 189.347656 143.496094 189.238281 143.429688 C 189.1875 143.394531 189.132812 143.363281 189.082031 143.328125 C 189.023438 143.296875 188.972656 143.265625 188.914062 143.234375 C 188.695312 143.113281 188.480469 142.988281 188.265625 142.871094 L 188.183594 142.824219 L 188.101562 142.78125 C 188.046875 142.753906 187.992188 142.726562 187.9375 142.699219 C 187.828125 142.644531 187.71875 142.589844 187.609375 142.539062 C 187.5 142.484375 187.394531 142.429688 187.285156 142.375 C 187.175781 142.324219 187.066406 142.28125 186.957031 142.230469 C 186.742188 142.136719 186.523438 142.042969 186.3125 141.949219 C 186.09375 141.867188 185.882812 141.789062 185.667969 141.707031 C 185.5625 141.667969 185.457031 141.628906 185.355469 141.589844 C 185.25 141.554688 185.144531 141.523438 185.039062 141.488281 C 184.828125 141.421875 184.625 141.359375 184.421875 141.292969 L 184.347656 141.269531 L 184.269531 141.25 C 184.21875 141.238281 184.167969 141.222656 184.117188 141.210938 C 184.015625 141.183594 183.917969 141.160156 183.816406 141.132812 C 183.71875 141.105469 183.621094 141.082031 183.523438 141.054688 C 183.425781 141.03125 183.332031 141.003906 183.234375 140.988281 C 183.039062 140.945312 182.851562 140.910156 182.667969 140.871094 C 182.484375 140.835938 182.304688 140.792969 182.125 140.769531 C 181.949219 140.746094 181.777344 140.71875 181.609375 140.695312 C 181.527344 140.683594 181.445312 140.671875 181.363281 140.660156 C 181.320312 140.652344 181.28125 140.644531 181.242188 140.640625 C 181.199219 140.640625 181.160156 140.632812 181.121094 140.628906 C 180.804688 140.601562 180.507812 140.570312 180.234375 140.546875 C 179.960938 140.535156 179.707031 140.527344 179.480469 140.515625 C 179.363281 140.515625 179.257812 140.511719 179.15625 140.503906 C 179.054688 140.503906 178.960938 140.507812 178.871094 140.511719 C 178.695312 140.515625 178.542969 140.515625 178.421875 140.519531 C 178.179688 140.527344 178.050781 140.53125 178.050781 140.53125 C 178.050781 140.53125 178.179688 140.542969 178.421875 140.5625 C 178.542969 140.574219 178.691406 140.585938 178.867188 140.601562 C 178.953125 140.609375 179.050781 140.617188 179.148438 140.625 C 179.25 140.640625 179.355469 140.652344 179.46875 140.667969 C 179.691406 140.695312 179.941406 140.726562 180.210938 140.765625 C 180.480469 140.8125 180.769531 140.863281 181.078125 140.914062 C 181.117188 140.921875 181.15625 140.929688 181.195312 140.933594 C 181.234375 140.941406 181.273438 140.953125 181.3125 140.960938 C 181.390625 140.980469 181.472656 140.996094 181.554688 141.015625 C 181.714844 141.050781 181.882812 141.089844 182.054688 141.125 C 182.226562 141.160156 182.402344 141.214844 182.578125 141.261719 C 182.757812 141.308594 182.9375 141.355469 183.125 141.40625 C 183.21875 141.429688 183.308594 141.464844 183.402344 141.492188 C 183.496094 141.523438 183.59375 141.550781 183.6875 141.582031 C 183.78125 141.613281 183.878906 141.644531 183.976562 141.675781 C 184.023438 141.691406 184.074219 141.707031 184.121094 141.722656 L 184.195312 141.746094 L 184.269531 141.773438 C 184.460938 141.84375 184.660156 141.917969 184.859375 141.992188 C 184.960938 142.03125 185.0625 142.066406 185.164062 142.105469 C 185.261719 142.148438 185.363281 142.191406 185.464844 142.234375 C 185.667969 142.320312 185.871094 142.40625 186.078125 142.496094 C 186.28125 142.59375 186.488281 142.691406 186.695312 142.792969 C 186.796875 142.84375 186.90625 142.890625 187.007812 142.945312 C 187.109375 143 187.214844 143.054688 187.316406 143.109375 C 187.421875 143.167969 187.523438 143.222656 187.628906 143.277344 C 187.683594 143.304688 187.734375 143.332031 187.785156 143.363281 L 187.867188 143.40625 L 187.941406 143.449219 C 188.773438 143.929688 189.59375 144.480469 190.394531 145.085938 C 191.1875 145.699219 191.953125 146.375 192.667969 147.097656 C 192.84375 147.285156 193.019531 147.46875 193.195312 147.652344 L 193.261719 147.722656 L 193.324219 147.792969 L 193.449219 147.9375 C 193.53125 148.035156 193.617188 148.128906 193.699219 148.226562 C 193.78125 148.324219 193.867188 148.414062 193.945312 148.515625 C 194.023438 148.613281 194.101562 148.714844 194.179688 148.8125 C 194.257812 148.910156 194.335938 149.007812 194.414062 149.109375 C 194.453125 149.15625 194.496094 149.207031 194.53125 149.257812 L 194.640625 149.410156 C 194.789062 149.613281 194.933594 149.816406 195.078125 150.019531 C 195.21875 150.226562 195.351562 150.433594 195.488281 150.636719 C 195.519531 150.691406 195.554688 150.742188 195.589844 150.792969 L 195.640625 150.871094 L 195.6875 150.949219 C 195.75 151.054688 195.808594 151.15625 195.871094 151.261719 C 195.933594 151.367188 195.996094 151.472656 196.054688 151.574219 C 196.085938 151.628906 196.117188 151.679688 196.148438 151.730469 C 196.175781 151.785156 196.203125 151.835938 196.234375 151.890625 C 196.34375 152.101562 196.457031 152.3125 196.566406 152.519531 C 196.625 152.621094 196.667969 152.730469 196.71875 152.835938 C 196.769531 152.9375 196.820312 153.042969 196.871094 153.148438 C 196.917969 153.253906 196.96875 153.355469 197.019531 153.457031 C 197.042969 153.511719 197.0625 153.5625 197.085938 153.613281 C 197.109375 153.667969 197.128906 153.71875 197.152344 153.769531 C 197.238281 153.980469 197.324219 154.183594 197.410156 154.386719 C 197.429688 154.4375 197.449219 154.488281 197.46875 154.539062 C 197.488281 154.589844 197.503906 154.644531 197.523438 154.695312 C 197.5625 154.796875 197.597656 154.898438 197.636719 154.996094 C 197.707031 155.199219 197.785156 155.394531 197.84375 155.59375 C 197.964844 155.988281 198.101562 156.367188 198.1875 156.742188 C 198.238281 156.929688 198.285156 157.113281 198.332031 157.289062 C 198.355469 157.378906 198.375 157.46875 198.394531 157.558594 C 198.414062 157.644531 198.429688 157.730469 198.449219 157.816406 C 198.488281 157.988281 198.523438 158.15625 198.558594 158.320312 C 198.578125 158.402344 198.589844 158.484375 198.605469 158.5625 C 198.617188 158.640625 198.628906 158.722656 198.644531 158.796875 C 198.667969 158.953125 198.695312 159.105469 198.71875 159.246094 C 198.730469 159.320312 198.742188 159.390625 198.753906 159.460938 C 198.761719 159.53125 198.769531 159.601562 198.777344 159.667969 C 198.8125 159.9375 198.839844 160.1875 198.867188 160.410156 C 198.910156 160.863281 198.933594 161.21875 198.953125 161.460938 C 198.964844 161.582031 198.96875 161.675781 198.972656 161.738281 C 198.976562 161.800781 198.976562 161.832031 198.976562 161.832031 C 198.976562 161.832031 198.980469 161.800781 198.984375 161.738281 C 198.988281 161.675781 198.996094 161.582031 198.996094 161.460938 C 199 161.339844 199.003906 161.1875 199.007812 161.011719 C 199.011719 160.835938 199.023438 160.632812 199.019531 160.40625 C 199.011719 160.175781 199.003906 159.925781 198.992188 159.648438 " fill-opacity="1" fill-rule="nonzero"/><path fill="#f68712" d="M 197.292969 141.699219 C 196.800781 141.21875 196.289062 140.757812 195.765625 140.320312 C 195.503906 140.097656 195.234375 139.886719 194.96875 139.679688 C 194.695312 139.472656 194.425781 139.265625 194.152344 139.074219 C 193.878906 138.875 193.597656 138.6875 193.320312 138.5 C 193.039062 138.320312 192.757812 138.136719 192.472656 137.96875 C 192.195312 137.792969 191.90625 137.632812 191.625 137.46875 C 191.335938 137.3125 191.050781 137.15625 190.765625 137.011719 C 189.621094 136.425781 188.46875 135.953125 187.359375 135.566406 C 186.800781 135.378906 186.257812 135.203125 185.722656 135.0625 C 185.1875 134.914062 184.667969 134.796875 184.167969 134.6875 C 183.914062 134.636719 183.667969 134.59375 183.429688 134.542969 C 183.1875 134.503906 182.949219 134.464844 182.722656 134.429688 C 182.488281 134.398438 182.265625 134.367188 182.046875 134.335938 C 181.824219 134.3125 181.613281 134.289062 181.40625 134.269531 C 180.582031 134.183594 179.855469 134.160156 179.261719 134.148438 C 178.964844 134.148438 178.699219 134.144531 178.46875 134.152344 C 178.238281 134.160156 178.042969 134.164062 177.882812 134.167969 C 177.566406 134.183594 177.398438 134.195312 177.398438 134.195312 C 177.398438 134.195312 177.566406 134.199219 177.882812 134.210938 C 178.042969 134.21875 178.238281 134.230469 178.46875 134.242188 C 178.582031 134.246094 178.707031 134.257812 178.835938 134.269531 C 178.96875 134.277344 179.109375 134.289062 179.253906 134.296875 C 179.84375 134.351562 180.558594 134.429688 181.371094 134.550781 C 181.574219 134.585938 181.78125 134.621094 181.996094 134.65625 C 182.210938 134.699219 182.433594 134.742188 182.65625 134.785156 C 182.882812 134.832031 183.113281 134.882812 183.347656 134.933594 C 183.585938 134.992188 183.824219 135.046875 184.070312 135.109375 C 184.558594 135.234375 185.0625 135.375 185.578125 135.542969 C 186.097656 135.703125 186.625 135.890625 187.167969 136.09375 C 187.300781 136.144531 187.433594 136.199219 187.570312 136.25 C 187.640625 136.28125 187.707031 136.304688 187.773438 136.332031 C 187.84375 136.359375 187.910156 136.390625 187.980469 136.417969 C 188.113281 136.476562 188.25 136.535156 188.390625 136.59375 C 188.523438 136.65625 188.664062 136.71875 188.800781 136.78125 C 188.9375 136.839844 189.074219 136.90625 189.210938 136.972656 C 189.347656 137.039062 189.488281 137.105469 189.628906 137.171875 C 189.902344 137.3125 190.179688 137.453125 190.457031 137.601562 C 190.734375 137.75 191.007812 137.910156 191.285156 138.066406 C 191.558594 138.230469 191.835938 138.390625 192.105469 138.5625 C 192.652344 138.90625 193.191406 139.273438 193.722656 139.664062 C 193.992188 139.855469 194.25 140.058594 194.515625 140.257812 C 194.769531 140.46875 195.035156 140.671875 195.285156 140.890625 C 195.796875 141.320312 196.292969 141.765625 196.769531 142.234375 C 197.730469 143.164062 198.613281 144.167969 199.421875 145.210938 C 199.523438 145.339844 199.617188 145.472656 199.71875 145.601562 C 199.765625 145.667969 199.816406 145.734375 199.863281 145.800781 C 199.914062 145.867188 199.957031 145.933594 200.007812 146 C 200.101562 146.132812 200.195312 146.265625 200.289062 146.398438 C 200.378906 146.53125 200.472656 146.664062 200.5625 146.800781 C 200.65625 146.933594 200.738281 147.070312 200.824219 147.203125 C 200.914062 147.335938 201 147.472656 201.082031 147.609375 C 201.164062 147.746094 201.246094 147.878906 201.328125 148.015625 C 201.410156 148.152344 201.488281 148.289062 201.566406 148.425781 C 201.878906 148.96875 202.167969 149.515625 202.433594 150.058594 C 202.570312 150.328125 202.691406 150.601562 202.816406 150.867188 C 202.875 151.003906 202.933594 151.136719 202.992188 151.269531 C 203.050781 151.40625 203.109375 151.539062 203.164062 151.671875 C 203.214844 151.804688 203.269531 151.9375 203.324219 152.070312 C 203.375 152.203125 203.425781 152.335938 203.472656 152.464844 C 203.578125 152.726562 203.664062 152.988281 203.753906 153.242188 C 203.804688 153.371094 203.84375 153.5 203.886719 153.625 C 203.925781 153.753906 203.96875 153.878906 204.007812 154.003906 C 204.082031 154.253906 204.160156 154.5 204.230469 154.742188 C 204.367188 155.226562 204.484375 155.695312 204.589844 156.144531 C 204.640625 156.371094 204.691406 156.585938 204.734375 156.800781 C 204.777344 157.015625 204.824219 157.222656 204.855469 157.425781 C 204.890625 157.628906 204.929688 157.824219 204.957031 158.011719 C 204.984375 158.203125 205.015625 158.386719 205.042969 158.5625 C 205.066406 158.738281 205.089844 158.90625 205.109375 159.070312 C 205.121094 159.148438 205.128906 159.230469 205.140625 159.304688 C 205.148438 159.382812 205.15625 159.457031 205.164062 159.53125 C 205.179688 159.679688 205.195312 159.820312 205.207031 159.949219 C 205.21875 160.082031 205.230469 160.203125 205.242188 160.320312 C 205.25 160.433594 205.261719 160.539062 205.269531 160.636719 C 205.277344 160.734375 205.28125 160.824219 205.285156 160.902344 C 205.304688 161.21875 205.316406 161.386719 205.316406 161.386719 C 205.316406 161.386719 205.320312 161.21875 205.328125 160.902344 C 205.328125 160.820312 205.332031 160.734375 205.332031 160.636719 C 205.332031 160.539062 205.332031 160.429688 205.332031 160.316406 C 205.328125 160.199219 205.332031 160.074219 205.328125 159.945312 C 205.324219 159.8125 205.316406 159.671875 205.3125 159.523438 C 205.308594 159.445312 205.308594 159.371094 205.304688 159.292969 C 205.300781 159.214844 205.292969 159.132812 205.289062 159.050781 C 205.277344 158.886719 205.269531 158.714844 205.257812 158.535156 C 205.238281 158.359375 205.222656 158.171875 205.207031 157.980469 C 205.1875 157.785156 205.160156 157.589844 205.136719 157.382812 C 205.117188 157.175781 205.078125 156.964844 205.050781 156.746094 C 205.019531 156.527344 204.980469 156.304688 204.941406 156.074219 C 204.863281 155.613281 204.761719 155.132812 204.644531 154.636719 C 204.585938 154.382812 204.519531 154.132812 204.453125 153.875 C 204.417969 153.746094 204.382812 153.617188 204.34375 153.484375 C 204.308594 153.351562 204.273438 153.222656 204.230469 153.089844 C 204.148438 152.824219 204.066406 152.554688 203.972656 152.285156 C 203.925781 152.152344 203.882812 152.015625 203.832031 151.878906 C 203.78125 151.742188 203.734375 151.605469 203.679688 151.46875 C 203.632812 151.328125 203.578125 151.191406 203.523438 151.054688 C 203.464844 150.914062 203.410156 150.777344 203.355469 150.636719 C 203.234375 150.359375 203.121094 150.074219 202.988281 149.796875 C 202.738281 149.230469 202.449219 148.667969 202.144531 148.101562 C 201.53125 146.96875 200.8125 145.847656 200 144.769531 C 199.183594 143.691406 198.273438 142.65625 197.292969 141.699219 " fill-opacity="1" fill-rule="nonzero"/><g fill="#f68712" fill-opacity="1"><g transform="translate(49.125001, 266.676707)"><g><path d="M 1.875 -23.09375 L 13.265625 -23.09375 C 15.835938 -23.09375 18.109375 -22.625 20.078125 -21.6875 C 22.046875 -20.757812 23.570312 -19.425781 24.65625 -17.6875 C 25.75 -15.945312 26.296875 -13.898438 26.296875 -11.546875 C 26.296875 -9.191406 25.75 -7.144531 24.65625 -5.40625 C 23.570312 -3.675781 22.046875 -2.34375 20.078125 -1.40625 C 18.109375 -0.46875 15.835938 0 13.265625 0 L 1.875 0 Z M 12.9375 -6.078125 C 14.601562 -6.078125 15.9375 -6.550781 16.9375 -7.5 C 17.945312 -8.457031 18.453125 -9.804688 18.453125 -11.546875 C 18.453125 -13.285156 17.945312 -14.632812 16.9375 -15.59375 C 15.9375 -16.550781 14.601562 -17.03125 12.9375 -17.03125 L 9.671875 -17.03125 L 9.671875 -6.078125 Z M 12.9375 -6.078125 "/></g></g></g><g fill="#f68712" fill-opacity="1"><g transform="translate(76.373348, 266.676707)"><g><path d="M 11.78125 -5.8125 L 9.671875 -5.8125 L 9.671875 0 L 1.875 0 L 1.875 -23.09375 L 13 -23.09375 C 15.132812 -23.09375 16.992188 -22.738281 18.578125 -22.03125 C 20.160156 -21.332031 21.378906 -20.320312 22.234375 -19 C 23.097656 -17.6875 23.53125 -16.148438 23.53125 -14.390625 C 23.53125 -12.734375 23.15625 -11.289062 22.40625 -10.0625 C 21.65625 -8.832031 20.578125 -7.851562 19.171875 -7.125 L 24.03125 0 L 15.703125 0 Z M 15.671875 -14.390625 C 15.671875 -15.242188 15.40625 -15.90625 14.875 -16.375 C 14.351562 -16.851562 13.5625 -17.09375 12.5 -17.09375 L 9.671875 -17.09375 L 9.671875 -11.6875 L 12.5 -11.6875 C 13.5625 -11.6875 14.351562 -11.921875 14.875 -12.390625 C 15.40625 -12.859375 15.671875 -13.523438 15.671875 -14.390625 Z M 15.671875 -14.390625 "/></g></g></g><g fill="#f68712" fill-opacity="1"><g transform="translate(100.949636, 266.676707)"><g><path d="M 13.984375 0.53125 C 11.503906 0.53125 9.273438 0.015625 7.296875 -1.015625 C 5.316406 -2.054688 3.765625 -3.492188 2.640625 -5.328125 C 1.515625 -7.160156 0.953125 -9.234375 0.953125 -11.546875 C 0.953125 -13.859375 1.515625 -15.929688 2.640625 -17.765625 C 3.765625 -19.609375 5.316406 -21.046875 7.296875 -22.078125 C 9.273438 -23.109375 11.503906 -23.625 13.984375 -23.625 C 16.472656 -23.625 18.707031 -23.109375 20.6875 -22.078125 C 22.664062 -21.046875 24.21875 -19.609375 25.34375 -17.765625 C 26.46875 -15.929688 27.03125 -13.859375 27.03125 -11.546875 C 27.03125 -9.234375 26.46875 -7.160156 25.34375 -5.328125 C 24.21875 -3.492188 22.664062 -2.054688 20.6875 -1.015625 C 18.707031 0.015625 16.472656 0.53125 13.984375 0.53125 Z M 13.984375 -5.78125 C 14.953125 -5.78125 15.828125 -6.015625 16.609375 -6.484375 C 17.390625 -6.953125 18.007812 -7.617188 18.46875 -8.484375 C 18.9375 -9.359375 19.171875 -10.378906 19.171875 -11.546875 C 19.171875 -12.710938 18.9375 -13.726562 18.46875 -14.59375 C 18.007812 -15.46875 17.390625 -16.140625 16.609375 -16.609375 C 15.828125 -17.085938 14.953125 -17.328125 13.984375 -17.328125 C 13.023438 -17.328125 12.15625 -17.085938 11.375 -16.609375 C 10.59375 -16.140625 9.96875 -15.46875 9.5 -14.59375 C 9.039062 -13.726562 8.8125 -12.710938 8.8125 -11.546875 C 8.8125 -10.378906 9.039062 -9.359375 9.5 -8.484375 C 9.96875 -7.617188 10.59375 -6.953125 11.375 -6.484375 C 12.15625 -6.015625 13.023438 -5.78125 13.984375 -5.78125 Z M 13.984375 -5.78125 "/></g></g></g><g fill="#f68712" fill-opacity="1"><g transform="translate(128.923721, 266.676707)"><g><path d="M 13 -23.09375 C 15.132812 -23.09375 16.992188 -22.738281 18.578125 -22.03125 C 20.160156 -21.332031 21.378906 -20.320312 22.234375 -19 C 23.097656 -17.6875 23.53125 -16.148438 23.53125 -14.390625 C 23.53125 -12.628906 23.097656 -11.085938 22.234375 -9.765625 C 21.378906 -8.441406 20.160156 -7.425781 18.578125 -6.71875 C 16.992188 -6.019531 15.132812 -5.671875 13 -5.671875 L 9.671875 -5.671875 L 9.671875 0 L 1.875 0 L 1.875 -23.09375 Z M 12.5 -11.6875 C 13.5625 -11.6875 14.351562 -11.921875 14.875 -12.390625 C 15.40625 -12.859375 15.671875 -13.523438 15.671875 -14.390625 C 15.671875 -15.242188 15.40625 -15.90625 14.875 -16.375 C 14.351562 -16.851562 13.5625 -17.09375 12.5 -17.09375 L 9.671875 -17.09375 L 9.671875 -11.6875 Z M 12.5 -11.6875 "/></g></g></g><g fill="#f68712" fill-opacity="1"><g transform="translate(153.434034, 266.676707)"><g><path d="M 22.5 0 L 22.4375 -10.53125 L 17.421875 -2.078125 L 13.984375 -2.078125 L 8.96875 -10.15625 L 8.96875 0 L 1.875 0 L 1.875 -23.09375 L 8.28125 -23.09375 L 15.8125 -10.796875 L 23.140625 -23.09375 L 29.53125 -23.09375 L 29.59375 0 Z M 22.5 0 "/></g></g></g><g fill="#f68712" fill-opacity="1"><g transform="translate(184.904884, 266.676707)"><g><path d="M 15.609375 -8.375 L 15.609375 0 L 7.828125 0 L 7.828125 -8.484375 L -0.890625 -23.09375 L 7.328125 -23.09375 L 12.046875 -15.109375 L 16.796875 -23.09375 L 24.328125 -23.09375 Z M 15.609375 -8.375 "/></g></g></g><g fill="#f68712" fill-opacity="1"><g transform="translate(208.326579, 266.676707)"><g><path d="M 20.359375 -12.078125 C 21.722656 -11.566406 22.78125 -10.828125 23.53125 -9.859375 C 24.28125 -8.898438 24.65625 -7.738281 24.65625 -6.375 C 24.65625 -4.34375 23.816406 -2.769531 22.140625 -1.65625 C 20.472656 -0.550781 18.054688 0 14.890625 0 L 1.875 0 L 1.875 -23.09375 L 14.21875 -23.09375 C 17.300781 -23.09375 19.628906 -22.539062 21.203125 -21.4375 C 22.773438 -20.34375 23.5625 -18.882812 23.5625 -17.0625 C 23.5625 -15.976562 23.289062 -15.007812 22.75 -14.15625 C 22.207031 -13.300781 21.410156 -12.609375 20.359375 -12.078125 Z M 9.53125 -17.65625 L 9.53125 -14.21875 L 13.171875 -14.21875 C 14.859375 -14.21875 15.703125 -14.789062 15.703125 -15.9375 C 15.703125 -17.082031 14.859375 -17.65625 13.171875 -17.65625 Z M 14.21875 -5.4375 C 15.9375 -5.4375 16.796875 -6.046875 16.796875 -7.265625 C 16.796875 -8.472656 15.9375 -9.078125 14.21875 -9.078125 L 9.53125 -9.078125 L 9.53125 -5.4375 Z M 14.21875 -5.4375 "/></g></g></g><g fill="#f68712" fill-opacity="1"><g transform="translate(233.826543, 266.676707)"><g><path d="M 21.09375 -5.875 L 21.09375 0 L 1.875 0 L 1.875 -23.09375 L 20.65625 -23.09375 L 20.65625 -17.21875 L 9.53125 -17.21875 L 9.53125 -14.515625 L 19.3125 -14.515625 L 19.3125 -8.90625 L 9.53125 -8.90625 L 9.53125 -5.875 Z M 21.09375 -5.875 "/></g></g></g><g fill="#f68712" fill-opacity="1"><g transform="translate(256.027667, 266.676707)"><g><path d="M 17.625 -4.03125 L 8.84375 -4.03125 L 7.296875 0 L -0.625 0 L 9.46875 -23.09375 L 17.125 -23.09375 L 27.21875 0 L 19.171875 0 Z M 15.484375 -9.640625 L 13.234375 -15.4375 L 10.984375 -9.640625 Z M 15.484375 -9.640625 "/></g></g></g><g fill="#f68712" fill-opacity="1"><g transform="translate(282.61625, 266.676707)"><g><path d="M 6.890625 -17.0625 L 0.125 -17.0625 L 0.125 -23.09375 L 21.453125 -23.09375 L 21.453125 -17.0625 L 14.6875 -17.0625 L 14.6875 0 L 6.890625 0 Z M 6.890625 -17.0625 "/></g></g></g><g fill="#f68712" fill-opacity="1"><g transform="translate(304.190605, 266.676707)"><g><path d="M 10.5 0.53125 C 8.582031 0.53125 6.710938 0.316406 4.890625 -0.109375 C 3.078125 -0.546875 1.585938 -1.125 0.421875 -1.84375 L 2.9375 -7.53125 C 4.039062 -6.882812 5.269531 -6.367188 6.625 -5.984375 C 7.988281 -5.597656 9.300781 -5.40625 10.5625 -5.40625 C 11.632812 -5.40625 12.398438 -5.507812 12.859375 -5.71875 C 13.328125 -5.925781 13.5625 -6.242188 13.5625 -6.671875 C 13.5625 -7.148438 13.257812 -7.507812 12.65625 -7.75 C 12.050781 -8 11.054688 -8.265625 9.671875 -8.546875 C 7.890625 -8.921875 6.40625 -9.320312 5.21875 -9.75 C 4.03125 -10.175781 2.992188 -10.878906 2.109375 -11.859375 C 1.234375 -12.835938 0.796875 -14.164062 0.796875 -15.84375 C 0.796875 -17.289062 1.203125 -18.609375 2.015625 -19.796875 C 2.828125 -20.984375 4.039062 -21.914062 5.65625 -22.59375 C 7.269531 -23.28125 9.234375 -23.625 11.546875 -23.625 C 13.128906 -23.625 14.6875 -23.453125 16.21875 -23.109375 C 17.75 -22.773438 19.097656 -22.273438 20.265625 -21.609375 L 17.921875 -15.96875 C 15.648438 -17.113281 13.503906 -17.6875 11.484375 -17.6875 C 9.484375 -17.6875 8.484375 -17.203125 8.484375 -16.234375 C 8.484375 -15.773438 8.78125 -15.425781 9.375 -15.1875 C 9.96875 -14.957031 10.945312 -14.710938 12.3125 -14.453125 C 14.070312 -14.117188 15.554688 -13.738281 16.765625 -13.3125 C 17.972656 -12.882812 19.019531 -12.1875 19.90625 -11.21875 C 20.800781 -10.25 21.25 -8.929688 21.25 -7.265625 C 21.25 -5.804688 20.84375 -4.488281 20.03125 -3.3125 C 19.21875 -2.132812 18 -1.195312 16.375 -0.5 C 14.757812 0.1875 12.800781 0.53125 10.5 0.53125 Z M 10.5 0.53125 "/></g></g></g></svg>